<?xml version="1.0" encoding="UTF-8"?><svg id="Orange" xmlns="http://www.w3.org/2000/svg" viewBox="0 0 400 400"><defs><style>.cls-1{fill:#2b2523;}.cls-1,.cls-2{stroke-width:0px;}.cls-3{isolation:isolate;}.cls-2{fill:#58b257;}</style></defs><g class="cls-3"><path class="cls-2" d="M18.04,238.37l-5.95,5.47v7.2h-3.41v-35.62h3.41v24.15l15.07-13.78h4.22l-10.8,10.32,11.81,14.93h-4.18l-10.18-12.67Z"/><path class="cls-2" d="M33.97,238.42c0-7.49,5.47-12.82,12.87-12.82s12.82,5.33,12.82,12.82-5.42,12.87-12.82,12.87-12.87-5.38-12.87-12.87ZM56.2,238.42c0-5.9-3.98-9.84-9.36-9.84s-9.41,3.94-9.41,9.84,4.03,9.84,9.41,9.84,9.36-3.94,9.36-9.84Z"/><path class="cls-2" d="M79.33,225.6v3.31c-.29,0-.58-.05-.82-.05-5.28,0-8.5,3.36-8.5,9.31v12.87h-3.41v-25.25h3.26v4.94c1.58-3.36,4.8-5.14,9.46-5.14Z"/><path class="cls-2" d="M98.2,225.6v3.31c-.29,0-.58-.05-.82-.05-5.28,0-8.5,3.36-8.5,9.31v12.87h-3.41v-25.25h3.26v4.94c1.58-3.36,4.8-5.14,9.46-5.14Z"/><path class="cls-2" d="M126.08,239.48h-21.12c.38,5.28,4.42,8.79,9.94,8.79,3.07,0,5.81-1.1,7.73-3.31l1.92,2.21c-2.26,2.69-5.76,4.13-9.75,4.13-7.87,0-13.25-5.38-13.25-12.87s5.23-12.82,12.34-12.82,12.24,5.23,12.24,12.82c0,.29-.05.67-.05,1.06ZM104.96,236.93h17.91c-.43-4.94-4.03-8.4-8.98-8.4s-8.5,3.46-8.93,8.4Z"/><path class="cls-2" d="M129.58,248.17l1.54-2.69c2.02,1.58,5.42,2.83,8.98,2.83,4.8,0,6.77-1.63,6.77-4.13,0-6.58-16.37-1.39-16.37-11.38,0-4.13,3.55-7.2,9.99-7.2,3.26,0,6.82.91,8.93,2.35l-1.49,2.74c-2.21-1.54-4.85-2.16-7.44-2.16-4.56,0-6.58,1.78-6.58,4.18,0,6.82,16.37,1.68,16.37,11.38,0,4.37-3.84,7.2-10.42,7.2-4.18,0-8.21-1.34-10.27-3.12Z"/><path class="cls-2" d="M182.15,238.42c0,7.68-5.38,12.87-12.58,12.87-4.03,0-7.49-1.73-9.6-4.99v14.06h-3.41v-34.56h3.26v4.99c2.06-3.36,5.57-5.18,9.75-5.18,7.2,0,12.58,5.18,12.58,12.82ZM178.74,238.42c0-5.86-4.08-9.84-9.41-9.84s-9.41,3.98-9.41,9.84,4.03,9.84,9.41,9.84,9.41-3.94,9.41-9.84Z"/><path class="cls-2" d="M186.56,238.42c0-7.49,5.47-12.82,12.87-12.82s12.82,5.33,12.82,12.82-5.42,12.87-12.82,12.87-12.87-5.38-12.87-12.87ZM208.79,238.42c0-5.9-3.98-9.84-9.36-9.84s-9.41,3.94-9.41,9.84,4.03,9.84,9.41,9.84,9.36-3.94,9.36-9.84Z"/><path class="cls-2" d="M242.43,236.4v14.64h-3.41v-14.31c0-5.33-2.78-8.06-7.58-8.06-5.42,0-8.83,3.36-8.83,9.12v13.25h-3.41v-25.25h3.26v4.66c1.82-3.07,5.23-4.85,9.6-4.85,6.14,0,10.37,3.55,10.37,10.8Z"/><path class="cls-2" d="M274.83,215.43v35.62h-3.26v-4.99c-2.06,3.41-5.57,5.23-9.75,5.23-7.2,0-12.58-5.23-12.58-12.87s5.38-12.82,12.58-12.82c4.03,0,7.49,1.73,9.6,4.99v-15.17h3.41ZM271.47,238.42c0-5.9-4.03-9.84-9.36-9.84s-9.41,3.94-9.41,9.84,4.03,9.84,9.41,9.84,9.36-3.94,9.36-9.84Z"/><path class="cls-2" d="M303.39,235.4v15.65h-3.26v-3.94c-1.54,2.59-4.51,4.18-8.69,4.18-5.71,0-9.22-2.98-9.22-7.34,0-3.89,2.5-7.15,9.74-7.15h8.02v-1.54c0-4.32-2.45-6.67-7.15-6.67-3.26,0-6.34,1.15-8.4,2.98l-1.54-2.54c2.54-2.16,6.29-3.41,10.27-3.41,6.53,0,10.23,3.26,10.23,9.79ZM299.99,243.46v-4.13h-7.92c-4.9,0-6.48,1.92-6.48,4.51,0,2.93,2.35,4.75,6.38,4.75s6.67-1.82,8.02-5.14Z"/><path class="cls-2" d="M335.89,236.4v14.64h-3.41v-14.31c0-5.33-2.78-8.06-7.58-8.06-5.42,0-8.83,3.36-8.83,9.12v13.25h-3.41v-25.25h3.26v4.66c1.82-3.07,5.23-4.85,9.6-4.85,6.14,0,10.37,3.55,10.37,10.8Z"/><path class="cls-2" d="M342.7,238.42c0-7.54,5.47-12.82,13.01-12.82,4.27,0,7.87,1.68,9.89,4.99l-2.54,1.73c-1.73-2.54-4.42-3.74-7.34-3.74-5.52,0-9.55,3.94-9.55,9.84s4.03,9.84,9.55,9.84c2.93,0,5.62-1.15,7.34-3.7l2.54,1.73c-2.02,3.26-5.62,4.99-9.89,4.99-7.54,0-13.01-5.33-13.01-12.87Z"/><path class="cls-2" d="M393.83,239.48h-21.12c.38,5.28,4.42,8.79,9.94,8.79,3.07,0,5.81-1.1,7.73-3.31l1.92,2.21c-2.26,2.69-5.76,4.13-9.75,4.13-7.87,0-13.25-5.38-13.25-12.87s5.23-12.82,12.34-12.82,12.24,5.23,12.24,12.82c0,.29-.05.67-.05,1.06ZM372.7,236.93h17.91c-.43-4.94-4.03-8.4-8.98-8.4s-8.5,3.46-8.93,8.4Z"/></g><path class="cls-1" d="M258.14,123.13l6.61-14c-9.85-6.31-21.3-9.67-33-9.7-20.48,0-34.35,10.11-34.35,26.28,0,33.55,50.93,21.83,50.93,42.85,0,7.27-6.6,11.45-17.66,11.45-10.1,0-22.23-4.85-31.93-13.74l-6.89,13.74c10.56,9.56,24.28,14.9,38.53,15,20.76,0,35.58-10.37,35.58-27.21.13-34-50.8-22.91-50.8-43.52,0-6.34,6.07-9.84,15.36-9.84,7.15,0,17.39,2.56,27.62,8.76"/><path class="cls-1" d="M190.5,147.25c0-19.32-11.24-35.36-28-42.9l-6.25,13.41c11.05,5.67,17.97,17.07,17.92,29.49.04,18.48-14.9,33.51-33.39,33.55-.05,0-.11,0-.16,0-18.46,0-34-14.82-34-33.55,0-12.44,6.98-23.82,18.07-29.45l-6.25-13.47c-16.73,7.52-28,23.5-28,42.92,0,26.95,21.83,47.83,50,47.83s50-20.88,50-47.83"/><rect class="cls-1" x="133.2" y="93.15" width="14.53" height="39.68"/><path class="cls-1" d="M294.19,114.41l-11.51,11.79v6.52h27.68v-7.87h-15.5l7.08-7.35c2.18-2.13,4.09-4.52,5.7-7.11,1.01-1.77,1.54-3.77,1.54-5.81.15-3.37-1.27-6.61-3.85-8.79-2.48-2.12-5.63-3.26-8.89-3.23-2.95-.12-5.86.64-8.37,2.19-2.42,1.72-4.46,3.92-6,6.46l7,4.16c2.21-3.52,4.55-5.28,7-5.28,2.46-.08,4.52,1.85,4.6,4.32,0,.09,0,.19,0,.28-.05,1.48-.57,2.9-1.48,4.07-1.52,2.01-3.19,3.9-5,5.65"/></svg>